<?xml version="1.0" standalone="no"?>
<!DOCTYPE svg PUBLIC "-//W3C//DTD SVG 20010904//EN"
 "http://www.w3.org/TR/2001/REC-SVG-20010904/DTD/svg10.dtd">
<svg version="1.0" xmlns="http://www.w3.org/2000/svg"
 width="220.000000pt" height="57.000000pt" viewBox="0 0 220.000000 57.000000"
 preserveAspectRatio="xMidYMid meet">

<g transform="translate(0.000000,57.000000) scale(0.100000,-0.100000)"
fill="#000000" stroke="none">
<path d="M10 285 l0 -275 1090 0 1090 0 0 275 0 275 -1090 0 -1090 0 0 -275z
m2150 0 l0 -255 -252 2 -253 3 -3 240 c-1 132 0 245 2 252 4 10 63 13 256 13
l250 0 0 -255z m-1804 28 c13 -32 28 -67 33 -78 6 -15 13 -5 36 54 26 66 47
93 61 78 3 -2 -12 -46 -33 -96 -49 -119 -63 -119 -114 -1 -44 99 -44 100 -23
100 9 0 25 -23 40 -57z m294 42 c0 -12 -14 -15 -65 -15 -51 0 -65 3 -65 15 0
12 14 15 65 15 51 0 65 -3 65 -15z m140 -80 l0 -95 -55 0 c-42 0 -55 3 -55 15
0 11 11 15 40 15 l40 0 0 80 c0 64 3 80 15 80 12 0 15 -17 15 -95z m95 25 c15
-38 31 -70 35 -70 4 0 20 32 35 70 20 49 33 70 45 70 15 0 12 -13 -21 -92 -31
-76 -42 -93 -59 -93 -17 0 -28 17 -59 93 -33 79 -36 92 -21 92 12 0 25 -21 45
-70z m295 55 c0 -12 -14 -15 -70 -15 -56 0 -70 3 -70 15 0 12 14 15 70 15 56
0 70 -3 70 -15z m170 0 c0 -12 -15 -15 -75 -15 -60 0 -75 3 -75 15 0 12 15 15
75 15 60 0 75 -3 75 -15z m-60 -110 c0 -51 -3 -65 -15 -65 -12 0 -15 14 -15
65 0 51 3 65 15 65 12 0 15 -14 15 -65z m-650 30 c0 -12 -13 -15 -60 -15 -47
0 -60 3 -60 15 0 12 13 15 60 15 47 0 60 -3 60 -15z m520 0 c0 -12 -13 -15
-60 -15 -47 0 -60 3 -60 15 0 12 13 15 60 15 47 0 60 -3 60 -15z m-510 -80 c0
-12 -14 -15 -65 -15 -51 0 -65 3 -65 15 0 12 14 15 65 15 51 0 65 -3 65 -15z
m530 0 c0 -12 -14 -15 -70 -15 -56 0 -70 3 -70 15 0 12 14 15 70 15 56 0 70
-3 70 -15z"/>
<path d="M1858 422 c-24 -14 -28 -24 -28 -60 l0 -43 33 16 c27 14 29 14 13 1
-10 -8 -24 -17 -30 -19 -6 -3 -3 -11 9 -21 19 -16 19 -16 -6 -5 -21 9 -33 8
-58 -5 -36 -19 -37 -24 -13 -43 15 -13 15 -13 -5 -4 -32 16 -33 15 -33 -29 0
-35 5 -43 33 -60 17 -11 35 -20 40 -20 12 0 8 75 -5 89 -11 10 -10 11 5 6 12
-5 17 -18 17 -51 0 -24 3 -44 6 -44 3 0 19 8 35 17 25 15 29 23 29 61 0 41 -1
42 -22 32 -22 -10 -22 -10 -4 4 10 8 15 19 11 25 -3 6 0 8 9 5 8 -3 29 2 48
11 28 14 30 14 14 0 -11 -8 -24 -15 -29 -15 -5 0 -4 -7 3 -15 11 -13 10 -14
-4 -9 -13 5 -16 -1 -16 -37 0 -41 3 -46 40 -66 l40 -21 0 43 c0 33 -5 46 -22
59 -23 16 -23 16 5 4 24 -10 27 -17 27 -55 0 -25 3 -43 8 -41 62 30 62 30 62
74 0 48 -16 69 -66 90 -32 14 -60 39 -30 28 13 -5 16 2 16 35 0 36 -4 44 -32
61 -45 27 -48 26 -48 -19 0 -29 6 -43 23 -55 22 -16 22 -16 -5 -4 -25 10 -28
17 -28 55 0 48 -3 50 -42 25z m201 -176 c-2 -2 -15 -9 -29 -15 -24 -11 -24
-11 -6 3 16 13 49 24 35 12z"/>
</g>
</svg>
