<?xml version="1.0" standalone="no"?>
<!DOCTYPE svg PUBLIC "-//W3C//DTD SVG 20010904//EN"
 "http://www.w3.org/TR/2001/REC-SVG-20010904/DTD/svg10.dtd">
<svg version="1.0" xmlns="http://www.w3.org/2000/svg"
 width="200.000000pt" height="200.000000pt" viewBox="0 0 200.000000 200.000000"
 preserveAspectRatio="xMidYMid meet">

<g transform="translate(0.000000,200.000000) scale(0.100000,-0.100000)"
fill="#000000" stroke="none">
<path d="M545 1370 c-55 -11 -116 -22 -135 -25 -45 -9 -30 -16 90 -45 73 -17
100 -29 116 -48 l21 -25 -34 -146 c-18 -80 -36 -155 -39 -166 -4 -13 -3 -17 4
-10 5 6 24 73 42 150 17 77 34 147 36 156 9 34 46 42 113 24 35 -9 65 -14 68
-11 5 4 -23 13 -100 32 -35 8 -52 38 -52 89 0 49 -1 49 -130 25z m121 -12 c-3
-13 -6 -28 -6 -33 0 -6 -13 -16 -29 -23 -25 -11 -41 -10 -106 7 -42 11 -79 22
-82 24 -2 3 29 10 69 17 40 7 89 16 108 20 52 12 53 12 46 -12z"/>
<path d="M213 1070 c-11 -61 -16 -107 -11 -102 4 4 15 48 24 97 9 50 18 92 20
94 3 3 23 -13 47 -35 l42 -39 -45 48 c-24 26 -47 47 -50 47 -4 0 -16 -50 -27
-110z"/>
<path d="M823 1166 c-4 -8 -38 -46 -75 -85 -54 -58 -72 -71 -97 -71 -29 0 -31
-2 -31 -39 0 -22 -6 -44 -15 -51 -8 -7 -15 -17 -15 -22 0 -6 6 -5 14 1 12 10
15 7 18 -21 3 -32 4 -33 55 -36 70 -4 93 9 93 53 0 18 -4 37 -10 40 -5 3 -7
19 -4 34 5 23 2 30 -15 36 -12 3 -21 12 -21 18 0 7 29 42 65 79 36 37 65 69
65 72 0 12 -19 6 -27 -8z m-118 -206 c-3 -5 -10 -10 -16 -10 -5 0 -9 5 -9 10
0 6 7 10 16 10 8 0 12 -4 9 -10z m5 -60 c0 -5 -7 -10 -15 -10 -8 0 -15 5 -15
10 0 6 7 10 15 10 8 0 15 -4 15 -10z"/>
<path d="M410 1005 c13 -14 26 -25 28 -25 3 0 -5 11 -18 25 -13 14 -26 25 -28
25 -3 0 5 -11 18 -25z"/>
<path d="M805 960 c-22 -67 -17 -114 13 -118 17 -3 25 2 29 17 5 19 45 32 42
14 -4 -24 4 -33 26 -33 14 0 25 6 26 13 3 38 -5 96 -16 125 -13 29 -18 32 -59
32 l-44 0 -17 -50z m75 -16 c0 -8 -7 -14 -15 -14 -17 0 -18 2 -9 24 7 18 24
12 24 -10z"/>
<path d="M977 1003 c-5 -9 -10 -50 -8 -70 1 -7 20 -18 44 -25 l42 -13 -40 -3
c-72 -6 -70 -52 2 -52 65 0 83 13 83 60 0 35 -3 40 -27 46 -52 11 -59 18 -20
22 29 2 37 7 37 23 0 16 -7 19 -54 19 -30 0 -57 -3 -59 -7z"/>
<path d="M1130 925 l0 -86 63 3 c56 3 62 5 65 26 3 20 -1 22 -37 22 -23 0 -41
5 -41 10 0 6 14 10 30 10 23 0 30 4 30 20 0 16 -7 20 -30 20 -16 0 -30 5 -30
10 0 6 18 10 40 10 33 0 40 3 40 20 0 18 -7 20 -65 20 l-65 0 0 -85z"/>
<path d="M1284 986 c-12 -48 -4 -59 56 -84 23 -10 21 -11 -18 -11 -39 -1 -43
-3 -40 -23 3 -20 10 -23 50 -26 37 -2 51 1 67 17 38 38 17 91 -35 91 -13 0
-24 5 -24 10 0 6 16 10 35 10 28 0 35 4 35 20 0 18 -7 20 -60 20 -55 0 -60 -2
-66 -24z"/>
<path d="M1440 951 c0 -33 4 -71 10 -85 13 -35 47 -34 61 2 l11 27 14 -27 c33
-64 74 -18 74 82 0 57 -1 60 -25 60 -23 0 -25 -4 -25 -42 -1 -34 -3 -39 -11
-25 -5 9 -16 17 -24 17 -8 0 -19 -8 -24 -17 -8 -14 -10 -9 -11 25 0 38 -2 42
-25 42 -24 0 -25 -3 -25 -59z"/>
<path d="M1654 975 c-7 -19 -14 -57 -14 -85 0 -47 2 -50 25 -50 18 0 25 5 25
20 0 27 36 27 43 -1 4 -15 12 -20 29 -17 30 4 35 51 13 118 l-17 50 -44 0
c-42 0 -46 -2 -60 -35z m69 -25 c4 -15 0 -20 -13 -20 -13 0 -17 5 -13 20 3 11
9 20 13 20 4 0 10 -9 13 -20z"/>
<path d="M1812 928 c3 -82 3 -83 31 -86 23 -3 27 0 27 22 0 20 5 26 21 26 51
0 78 44 59 94 -9 24 -14 26 -75 26 l-66 0 3 -82z m86 25 c-5 -25 -28 -28 -28
-4 0 12 6 21 16 21 9 0 14 -7 12 -17z"/>
<path d="M490 925 c19 -19 36 -35 39 -35 3 0 -10 16 -29 35 -19 19 -36 35 -39
35 -3 0 10 -16 29 -35z"/>
</g>
</svg>
